<?xml version="1.0" encoding="UTF-8" standalone="no"?>
<!-- Created with Inkscape (http://www.inkscape.org/) -->

<svg
   width="512"
   height="512"
   viewBox="0 0 512 512"
   version="1.1"
   id="svg1"
   sodipodi:docname="dark_logo.svg"
   inkscape:version="1.4.2 (1:1.4.2+202505120737+ebf0e940d0)"
   xmlns:inkscape="http://www.inkscape.org/namespaces/inkscape"
   xmlns:sodipodi="http://sodipodi.sourceforge.net/DTD/sodipodi-0.dtd"
   xmlns="http://www.w3.org/2000/svg"
   xmlns:svg="http://www.w3.org/2000/svg">
  <sodipodi:namedview
     id="namedview1"
     pagecolor="#505050"
     bordercolor="#eeeeee"
     borderopacity="1"
     inkscape:showpageshadow="0"
     inkscape:pageopacity="0"
     inkscape:pagecheckerboard="true"
     inkscape:deskcolor="#505050"
     inkscape:document-units="px"
     showguides="false"
     inkscape:zoom="0.92725428"
     inkscape:cx="379.6154"
     inkscape:cy="448.63638"
     inkscape:window-width="2560"
     inkscape:window-height="1542"
     inkscape:window-x="1920"
     inkscape:window-y="348"
     inkscape:window-maximized="1"
     inkscape:current-layer="layer1" />
  <defs
     id="defs1" />
  <g
     inkscape:label="Layer 1"
     inkscape:groupmode="layer"
     id="layer1">
    <g
       id="g6"
       transform="matrix(5.0587387,0,0,5.0587387,0,349.41629)"
       style="fill:#f5f5f5;fill-opacity:1">
      <path
         class="cls-2"
         d="M 0,23.033 V 12.536 h 4.461 c 1.122,0 1.937,0.094 2.445,0.283 0.509,0.188 0.915,0.524 1.221,1.006 0.305,0.482 0.458,1.033 0.458,1.654 0,0.787 -0.231,1.438 -0.694,1.951 -0.463,0.513 -1.156,0.836 -2.077,0.97 0.459,0.267 0.837,0.561 1.135,0.881 0.298,0.32 0.701,0.888 1.207,1.704 l 1.281,2.048 H 6.903 L 5.37,20.749 C 4.826,19.932 4.454,19.418 4.253,19.206 4.053,18.993 3.84,18.848 3.616,18.769 3.392,18.69 3.036,18.651 2.549,18.651 h -0.43 v 4.382 H 0 m 2.119,-6.058 h 1.569 c 1.016,0 1.651,-0.043 1.904,-0.129 C 5.845,16.76 6.043,16.612 6.187,16.402 6.33,16.192 6.401,15.93 6.401,15.615 6.401,15.262 6.307,14.976 6.119,14.759 5.93,14.542 5.664,14.405 5.32,14.347 5.148,14.324 4.633,14.312 3.774,14.312 H 2.119 c 0,0 0,2.663 0,2.663 z"
         id="path1"
         style="stroke-width:0px;fill:#f5f5f5;fill-opacity:1" />
      <path
         class="cls-2"
         d="m 10.569,12.536 h 2.119 v 5.685 c 0,0.902 0.026,1.487 0.079,1.754 0.091,0.43 0.307,0.775 0.648,1.035 0.341,0.26 0.808,0.39 1.4,0.39 0.601,0 1.055,-0.123 1.36,-0.369 0.306,-0.245 0.489,-0.547 0.551,-0.905 0.062,-0.358 0.094,-0.953 0.094,-1.783 v -5.807 h 2.119 v 5.513 c 0,1.26 -0.057,2.151 -0.172,2.671 -0.114,0.52 -0.326,0.96 -0.634,1.318 -0.307,0.358 -0.719,0.643 -1.235,0.855 -0.515,0.213 -1.188,0.319 -2.019,0.319 -1.002,0 -1.762,-0.116 -2.281,-0.347 -0.517,-0.232 -0.927,-0.533 -1.227,-0.903 -0.301,-0.37 -0.499,-0.757 -0.595,-1.163 -0.138,-0.602 -0.207,-1.49 -0.207,-2.664 v -5.599"
         id="path2"
         style="stroke-width:0px;fill:#f5f5f5;fill-opacity:1" />
      <polyline
         class="cls-2"
         points="21.194 23.033 21.194 12.536 23.257 12.536 27.553 19.546 27.553 12.536 29.522 12.536 29.522 23.033 27.395 23.033 23.164 16.188 23.164 23.033 21.194 23.033"
         id="polyline2"
         style="stroke-width:0px;fill:#f5f5f5;fill-opacity:1" />
      <rect
         class="cls-2"
         x="31.52"
         y="18.221001"
         width="3.9519999"
         height="2.0120001"
         id="rect2"
         style="stroke-width:0px;fill:#f5f5f5;fill-opacity:1" />
      <path
         class="cls-3"
         d="m 43.363,19.173 2.055,0.652 c -0.315,1.146 -0.839,1.997 -1.572,2.553 -0.733,0.556 -1.662,0.834 -2.789,0.834 -1.394,0 -2.539,-0.476 -3.437,-1.429 -0.897,-0.952 -1.346,-2.254 -1.346,-3.906 0,-1.747 0.451,-3.104 1.353,-4.07 0.902,-0.967 2.089,-1.45 3.559,-1.45 1.284,0 2.327,0.379 3.129,1.138 0.477,0.449 0.835,1.093 1.074,1.934 l -2.098,0.501 c -0.124,-0.544 -0.383,-0.974 -0.777,-1.289 -0.394,-0.315 -0.872,-0.473 -1.436,-0.473 -0.778,0 -1.409,0.28 -1.893,0.838 -0.485,0.559 -0.727,1.463 -0.727,2.714 0,1.327 0.239,2.272 0.716,2.835 0.477,0.564 1.098,0.845 1.862,0.845 0.563,0 1.047,-0.179 1.453,-0.537 0.406,-0.358 0.697,-0.921 0.874,-1.69"
         id="path3"
         style="fill:#f5f5f5;stroke-width:0px;fill-opacity:1" />
      <polyline
         class="cls-3"
         points="47.244 23.033 47.244 12.536 49.363 12.536 49.363 16.667 53.516 16.667 53.516 12.536 55.635 12.536 55.635 23.033 53.516 23.033 53.516 18.443 49.363 18.443 49.363 23.033 47.244 23.033"
         id="polyline3"
         style="fill:#f5f5f5;stroke-width:0px;fill-opacity:1" />
      <rect
         class="cls-3"
         x="57.762001"
         y="12.536"
         width="2.119"
         height="10.497"
         id="rect3"
         style="fill:#f5f5f5;stroke-width:0px;fill-opacity:1" />
      <path
         class="cls-3"
         d="m 68.617,19.173 2.055,0.652 c -0.315,1.146 -0.839,1.997 -1.572,2.553 -0.732,0.556 -1.662,0.834 -2.789,0.834 -1.393,0 -2.539,-0.476 -3.437,-1.429 -0.897,-0.952 -1.346,-2.254 -1.346,-3.906 0,-1.747 0.451,-3.104 1.354,-4.07 0.902,-0.967 2.088,-1.45 3.558,-1.45 1.284,0 2.327,0.379 3.129,1.138 0.478,0.449 0.836,1.093 1.074,1.934 l -2.098,0.501 c -0.124,-0.544 -0.383,-0.974 -0.777,-1.289 -0.393,-0.315 -0.872,-0.473 -1.435,-0.473 -0.778,0 -1.41,0.28 -1.894,0.838 -0.485,0.559 -0.727,1.463 -0.727,2.714 0,1.327 0.239,2.272 0.716,2.835 0.478,0.564 1.098,0.845 1.862,0.845 0.563,0 1.048,-0.179 1.454,-0.537 0.405,-0.358 0.696,-0.921 0.873,-1.69"
         id="path4"
         style="fill:#f5f5f5;stroke-width:0px;fill-opacity:1" />
      <polyline
         class="cls-3"
         points="72.519 23.033 72.519 12.536 74.639 12.536 74.639 17.197 78.921 12.536 81.77 12.536 77.818 16.624 81.985 23.033 79.243 23.033 76.357 18.107 74.639 19.861 74.639 23.033 72.519 23.033"
         id="polyline4"
         style="fill:#f5f5f5;stroke-width:0px;fill-opacity:1" />
      <polyline
         class="cls-3"
         points="83.081 23.033 83.081 12.536 90.864 12.536 90.864 14.312 85.2 14.312 85.2 16.639 90.47 16.639 90.47 18.407 85.2 18.407 85.2 21.264 91.064 21.264 91.064 23.033 83.081 23.033"
         id="polyline5"
         style="fill:#f5f5f5;stroke-width:0px;fill-opacity:1" />
      <polyline
         class="cls-3"
         points="92.883 23.033 92.883 12.536 94.945 12.536 99.241 19.546 99.241 12.536 101.211 12.536 101.211 23.033 99.084 23.033 94.852 16.188 94.852 23.033 92.883 23.033"
         id="polyline6"
         style="fill:#f5f5f5;stroke-width:0px;fill-opacity:1" />
    </g>
    <path
       class="cls-1"
       d="m 490.06451,100.71972 c 2.06385,-2.405899 4.04521,-4.729291 6.3096,-7.382783 -4.79996,-5.625532 -9.36415,-11.42794 -14.42353,-16.746859 -2.77145,-2.91291 -3.54985,-5.920258 -2.64172,-9.493769 0.96709,-3.773903 2.22891,-7.453434 3.38475,-11.26277 l -0.21241,-0.44836 c -6.40031,-7.712928 -15.63,-11.062378 -27.69114,-10.048093 -8.6919,0.719122 -17.07706,2.429422 -24.24755,7.807357 -1.15572,0.873014 -2.11098,2.217133 -2.74787,3.537965 -3.49083,7.182254 -3.40834,14.31738 0.16534,21.54682 1.66281,3.372976 2.75964,7.040744 4.32818,11.156683 -1.52129,-0.365085 -2.60635,-0.554562 -3.63239,-0.896359 -5.77887,-1.898748 -11.49861,-3.974381 -17.32461,-5.696254 -4.74106,-1.415212 -9.24622,-2.252556 -14.6004,-0.919904 -6.49824,1.615738 -13.598,0.943497 -20.43815,1.049641 -3.06637,0.04219 -5.08309,0.908075 -6.07365,4.092355 -0.35363,1.143956 -1.72195,2.594582 -2.83049,2.795117 -9.43486,1.710052 -16.40482,6.686879 -20.92176,15.166363 l -0.74296,0.70761 c -4.38714,-1.6864 -8.86872,-3.19606 -13.14977,-5.1301 -9.74142,-4.410801 -19.90742,-4.599554 -30.26212,-3.597051 -7.44174,0.719131 -14.90707,1.167558 -22.36058,1.745418 -2.83041,0.212412 -5.77874,0.0241 -8.45595,0.813821 -1.94588,0.554562 -4.02157,2.063852 -5.15376,3.750252 -2.7125,4.03345 -6.09719,5.70808 -10.88537,5.03584 -2.17001,-0.30715 -4.46981,0.24802 -6.62805,-0.11767 -4.57577,-0.78992 -6.67506,1.3326 -8.23177,5.41318 -1.83985,4.79995 -4.03345,9.55278 -6.80492,13.85736 -1.50953,2.35871 -4.29287,4.1985 -6.88746,5.51939 -8.37334,4.26923 -16.85289,8.397 -23.62232,15.02492 -3.656,3.58527 -6.45111,8.05502 -9.62351,12.13561 -0.90813,1.17931 -2.06386,2.5238 -3.10167,0.54249 -2.97205,-5.75521 -8.47961,-5.83776 -13.73951,-6.75765 -1.55678,-0.27157 -3.32579,-0.88454 -4.42262,-1.94595 -1.89869,-1.8398 -3.86817,-2.51204 -6.46276,-2.53557 -9.06929,-0.0796 -18.1267,-0.45983 -27.19589,-0.55457 -7.32375,-0.0796 -14.02246,-1.36808 -19.84846,-6.52184 -2.12288,-1.88698 -5.76711,-2.13465 -8.76263,-2.96016 -3.31396,-0.90807 -6.84016,-1.25011 -10.01274,-2.51204 -6.250517,-2.48845 -12.784066,-3.26671 -19.32956,-4.18661 -8.314437,-1.15585 -16.616997,-2.35876 -25.391387,-3.5971 -0.719132,2.59459 -1.438863,5.16558 -2.122876,7.74834 -1.09677,4.10419 -3.196044,7.27664 -7.512393,8.56211 -11.840763,3.54985 -20.850987,11.58122 -30.049906,19.27067 -3.243239,2.71244 -6.2269851,5.75521 -9.6471561,8.20829 -6.32125105,4.564 -7.123239,10.49616 -5.01225,17.39539 0.76686,2.51204 1.604032,5.02407 2.22902,7.57142 0.577498,2.32339 1.745418,3.72678 4.552298,3.57345 0.459828,-3.56163 2.4176591,-3.12527 5.2009451,-2.09923 8.267195,3.04266 16.664251,5.75522 24.990461,8.621 4.646679,1.60402 5.896789,6.92283 2.476674,10.36653 -6.627978,6.66341 -13.102626,13.50356 -20.001803,19.88389 -2.170005,1.99313 -1.41527,4.68198 -2.94839,6.53367 -2.37053,2.85402 -1.804434,5.3188 -0.212412,8.50308 1.92235,3.85646 4.17484,5.46043 8.46772,4.89434 4.351829,-0.56604 8.786153,-0.54251 13.597944,-0.78986 -1.8398,7.92522 -3.596981,15.46127 -5.366058,22.99739 -0.483964,2.05202 -1.049632,4.06875 -1.53312,6.12084 -1.320955,5.49574 0.778385,10.55518 5.96751,13.20878 4.104118,2.09922 8.385102,3.91542 12.736941,5.41318 7.24127,2.47668 12.760601,7.0997 17.218574,13.138 4.446154,6.0264 8.727204,12.17085 13.161528,18.22091 1.179388,1.6039 1.733712,3.05453 0.389231,4.81184 l -0.990683,1.9813 c -3.667769,7.38266 -3.655996,7.32376 -11.852526,6.25047 -3.927186,-0.51897 -7.901624,-0.7545 -12.336014,-1.15573 1.427042,2.72434 2.629956,5.02402 4.104184,7.85449 -9.210692,1.81621 -18.185607,3.59705 -27.679375,5.48397 1.662924,4.97689 3.196052,9.72965 4.906105,14.42347 l 2.040258,0.88453 c 5.236368,0.5069 10.625961,0.30715 15.685397,1.52142 7.394543,1.79254 14.612163,4.42249 21.794408,7.01708 2.299751,0.83765 4.056932,0.95526 6.144442,-0.33009 3.408342,-2.09921 6.910941,-4.03333 10.460792,-5.87313 1.721883,-0.88453 2.111104,-1.82802 1.627501,-3.76214 -0.636818,-2.55916 -2.476617,-5.64906 1.332719,-7.40637 l 3.042717,-0.11767 c 1.25011,0.45983 2.41765,1.30906 3.4437,2.1936 5.57834,4.79995 11.97044,6.06182 18.88144,4.02157 8.71544,-2.58283 17.21852,-0.78987 25.82775,0.45982 11.28643,1.63927 21.22837,-1.35625 28.3635,-10.57883 2.83036,-3.65599 4.22203,-8.44406 6.29771,-12.70157 2.12288,-4.36361 4.35178,-8.65649 6.38027,-13.05544 1.59215,-3.44365 8.52668,-5.56652 8.47955,-4.8235 -0.38922,6.52178 3.52626,10.77923 7.65397,14.94231 2.48845,2.5121 4.59949,5.21277 4.96505,8.92767 0.34216,3.53814 3.12534,5.01237 5.6845,6.67518 3.75037,2.45301 7.50069,4.91792 11.23918,7.38277 l 0.40069,0.48397 c 2.91303,6.26229 8.45596,6.16791 14.02247,5.68442 l 2.94839,-1.87515 c 1.8634,-2.41766 3.56162,-4.98872 5.22449,-7.54794 1.00244,-1.55666 2.05214,-2.05198 3.88005,-1.20286 5.53122,2.54734 11.28643,4.64662 16.67614,7.4771 3.40834,1.78078 6.52178,4.30458 9.37585,6.93454 6.09719,5.62547 13.24402,5.17741 20.47352,3.88006 4.42256,-0.78986 8.84512,-1.93412 13.03185,-3.54986 3.20781,-1.25011 6.03823,-3.479 8.75079,-5.09474 -0.1418,-1.085 -0.0948,-1.36802 -0.21241,-1.4624 -7.21761,-5.83776 -9.52918,-14.04606 -11.21571,-22.69077 -1.14389,-5.89678 -0.61292,-7.67757 5.10664,-11.5105 2.59459,-1.73358 5.55475,-2.9365 8.4796,-4.43426 -1.30912,-2.8659 -2.60642,-5.70809 -3.85652,-8.45595 -1.81621,0.33008 -3.85652,1.36796 -4.89433,0.74296 -2.93657,-1.76901 -5.73163,-3.98626 -8.07856,-6.49824 -1.8162,-1.94594 -0.74297,-4.57589 1.80444,-5.74345 7.54781,-3.43187 15.09569,-6.88746 22.69071,-10.26038 1.63927,-0.7315 2.79505,-1.49776 2.92479,-3.54985 0.25949,-3.99797 4.32818,-6.58079 8.7508,-6.22699 4.4225,0.37776 8.96304,-0.70761 13.45643,-1.23834 4.17485,-0.49543 8.32621,-1.13207 12.50106,-1.63927 2.6772,-0.31862 6.7459,-5.54293 5.37788,-7.76012 -3.86829,-6.21516 -1.96954,-12.53653 -0.95526,-18.78706 1.07318,-6.60439 1.26187,-13.4446 4.44615,-19.63617 l -1.07317,-3.19606 c -4.36366,-5.43683 -8.78628,-10.81471 -13.31493,-16.12174 -1.42703,-1.67469 -1.93411,-3.16069 -1.20297,-5.41324 1.7573,-5.40141 3.23147,-10.89721 4.70569,-16.36941 0.5775,-2.12287 1.58025,-2.90126 3.92719,-3.11349 6.32131,-0.56604 12.90211,-0.37776 18.61019,-3.95085 2.94839,-1.83979 5.66083,-4.10411 8.75074,-5.66083 6.10908,-3.0663 12.3479,-5.89679 18.63372,-8.59752 5.40147,-2.32334 10.90904,-4.41073 16.42843,-6.43923 1.91058,-0.69613 2.81865,-1.82802 3.23147,-3.75037 0.86064,-4.10412 1.87509,-8.17294 2.59459,-11.25108 3.60874,-1.56848 6.43922,-2.91291 9.35219,-4.00967 l 3.33762,-0.12974 c 2.80682,2.22902 6.03823,2.92474 9.41121,3.07813 4.08059,0.17681 8.17293,0.0362 12.71335,0.0362 -1.19109,-4.88257 -2.3587,-9.72965 -3.56162,-14.56497 -0.88454,-3.5735 -1.76907,-7.14689 -2.74786,-10.68498 -0.56604,-2.02849 -0.006,-3.32579 1.78084,-4.49328 4.42249,-2.85407 8.60922,-6.08554 13.1261,-8.78622 1.47423,-0.88453 3.80939,-1.2501 5.46043,-0.77838 6.85204,1.91057 13.59795,4.26934 20.4028,6.38032 l 2.85407,0.15328 -0.88453,-2.97193 c -6.89918,-8.68007 -13.88097,-17.28936 -21.05145,-26.15801"
       id="path6"
       style="fill-rule:evenodd;stroke-width:0px;fill:#f5f5f5;fill-opacity:1" />
  </g>
</svg>
